# xmcd CD database file
#
# Track frame offsets:
#	150
#	22902
#	55045
#	75530
#	101935
#	139816
#	170109
#	185328
#	206759
#	225507
#	244619
#	272773
#
# Disc length: 3703 seconds
#
# Revision: 3
# Processed by: cddbd v1.5.2PL0 Copyright (c) Steve Scherf et al.
# Submitted via: cdripper 1,0,39,0213
#
DISCID=9f0e750c
DTITLE=Karen Clark Sheard - The Heavens Are Telling
DYEAR=2003
DGENRE=Gospel
TTITLE0=We Acknowledge You
TTITLE1=We Are Not Ashamed (feat. Mary Mary)
TTITLE2=Glorious (Make The Praise)
TTITLE3=The Heavens Are Telling
TTITLE4=God Is Here
TTITLE5=You Loved Me (feat. Kierra ''Kiki'' Sheard)
TTITLE6=Go Ahead (feat. Missy Elliott)
TTITLE7=Praise Up
TTITLE8=I Owe
TTITLE9=Sometimes
TTITLE10=Don't Change (feat. Kierra ''Kiki'' Sheard)
TTITLE11=Data Track
EXTD=www.karenclarksheard.com\nwww.elektra.com\nwww.musicinformation.com\nwww.verity.com\nshine897.fm\nwww.dominantrecords.com YEAR: 2003
EXTT0=
EXTT1=
EXTT2=
EXTT3=
EXTT4=
EXTT5=
EXTT6=
EXTT7=
EXTT8=
EXTT9=
EXTT10=
EXTT11=
PLAYORDER=
